<svg xmlns="http://www.w3.org/2000/svg" xmlns:xlink="http://www.w3.org/1999/xlink" width="80" height="81" version="1.1" viewBox="0 0 80 81"><title>icon</title><g id="Designs" fill="none" fill-rule="evenodd" stroke="none" stroke-width="1"><g id="Home-Page-Color-Op1" fill="#FFF" transform="translate(-320.000000, -1214.000000)"><g id="Use-Cases" transform="translate(250.000000, 1072.000000)"><g id="1" transform="translate(0.000000, 72.000000)"><path id="icon" d="M129.762,70 L129.762,87.981 L113.261,105.138 L93.24,105.138 L93.24,90.551 L102.312,90.551 L102.312,70.551 L82.312,70.551 L82.312,90.551 L90.74,90.551 L90.74,105.138 L70,105.138 L70,150.138 L115,150.138 L115,128.81 L129.762,128.81 L129.762,137.559 L149.762,137.559 L149.762,117.56 L129.762,117.56 L129.762,126.309 L115,126.309 L115,106.937 L131.288,90 L149.762,90 L149.762,70 L129.762,70 Z M93.24,107.638 L110.858,107.638 L103.644,115.138 L93.24,115.138 L93.24,107.638 Z M72.5,107.638 L90.74,107.638 L90.74,115.138 L80,115.138 L80,140.138 L105,140.138 L105,128.81 L112.5,128.81 L112.5,147.638 L72.5,147.638 L72.5,107.638 Z M105,117.335 L112.5,109.536 L112.5,126.309 L105,126.309 L105,117.335 Z"/></g></g></g></g></svg>