<svg xmlns="http://www.w3.org/2000/svg" xmlns:xlink="http://www.w3.org/1999/xlink" width="24" height="24" version="1.1" viewBox="0 0 24 24"><title>icon</title><g id="Designs" fill="none" fill-rule="evenodd" stroke="none" stroke-width="1"><g id="Homepage-Mobile-Nav" fill="#231F1F" fill-rule="nonzero" transform="translate(-328.000000, -28.000000)"><g id="icon" transform="translate(328.000000, 28.000000)"><path id="Shape" d="M26,13 L-2,13 C-2.55228475,13 -3,12.5522847 -3,12 C-3,11.4477153 -2.55228475,11 -2,11 L26,11 C26.5522847,11 27,11.4477153 27,12 C27,12.5522847 26.5522847,13 26,13 Z" transform="translate(12.000000, 12.000000) scale(-1, 1) rotate(45.000000) translate(-12.000000, -12.000000)"/><path id="Shape" d="M26,13 L-2,13 C-2.55228475,13 -3,12.5522847 -3,12 C-3,11.4477153 -2.55228475,11 -2,11 L26,11 C26.5522847,11 27,11.4477153 27,12 C27,12.5522847 26.5522847,13 26,13 Z" transform="translate(12.000000, 12.000000) rotate(45.000000) translate(-12.000000, -12.000000)"/></g></g></g></svg>